<svg width="24" height="24" viewBox="0 0 24 24" fill="none" xmlns="http://www.w3.org/2000/svg">
<g opacity="0.25">
<path d="M3 2H4.30116C5.48672 2 6.0795 2 6.4814 2.37142C6.88331 2.74285 6.96165 3.36307 7.11834 4.60351L8.24573 13.5287C8.45464 15.1826 8.5591 16.0095 9.09497 16.5048C9.63085 17 10.4212 17 12.002 17H22" stroke="#E7EAF1" stroke-width="1.5" stroke-linecap="round"/>
<path d="M11.5 21C12.3284 21 13 20.3284 13 19.5C13 18.6716 12.3284 18 11.5 18C10.6716 18 10 18.6716 10 19.5C10 20.3284 10.6716 21 11.5 21Z" stroke="#E7EAF1" stroke-width="1.5"/>
<path d="M18.5 21C19.3284 21 20 20.3284 20 19.5C20 18.6716 19.3284 18 18.5 18C17.6716 18 17 18.6716 17 19.5C17 20.3284 17.6716 21 18.5 21Z" stroke="#E7EAF1" stroke-width="1.5"/>
<path d="M18 14H16C14.1144 14 13.1716 14 12.5858 13.4142C12 12.8284 12 11.8856 12 10V8C12 6.11438 12 5.17157 12.5858 4.58579C13.1716 4 14.1144 4 16 4H18C19.8856 4 20.8284 4 21.4142 4.58579C22 5.17157 22 6.11438 22 8V10C22 11.8856 22 12.8284 21.4142 13.4142C20.8284 14 19.8856 14 18 14Z" stroke="#E7EAF1" stroke-width="1.5" stroke-linecap="round" stroke-linejoin="round"/>
<path d="M16.5 7H17.5" stroke="#E7EAF1" stroke-width="1.5" stroke-linecap="round" stroke-linejoin="round"/>
</g>
</svg>
